Coordinates
version=1
nRows=6
nColumns=36
inDegrees=yes

Units are S.I. units (second, meters, Newtons, ...)
If the header above contains a line with 'inDegrees', this indicates whether rotational values are in degrees (yes) or radians (no).

endheader
time	pelvis_tilt	pelvis_list	pelvis_rotation	pelvis_tx	pelvis_ty	pelvis_tz	hip_flexion_r	hip_adduction_r	hip_rotation_r	knee_angle_r	knee_angle_r_beta	ankle_angle_r	subtalar_angle_r	mtp_angle_r	hip_flexion_l	hip_adduction_l	hip_rotation_l	knee_angle_l	knee_angle_l_beta	ankle_angle_l	subtalar_angle_l	mtp_angle_l	lumbar_extension	lumbar_bending	lumbar_rotation	arm_flex_r	arm_add_r	arm_rot_r	elbow_flex_r	pro_sup_r	arm_flex_l	arm_add_l	arm_rot_l	elbow_flex_l	pro_sup_l
      0.33000000	     -0.91085823	     -2.55501934	      6.96816090	      0.37834321	      0.96740835	     -0.13350696	     -2.82330112	      9.60819652	     -0.17818650	      1.40326591	      0.02449161	      6.07255462	    -15.40534843	     -6.50104747	     29.67145099	     -5.12670794	     -4.45559919	     46.06462453	      0.80397937	      0.05523356	    -12.69876697	     -6.50104747	     -4.51364061	     -0.12236474	      6.42260417	     12.78422609	     -3.42739875	    -14.35958556	     41.43856511	    105.55323889	     -2.06438289	     -0.79214564	    -17.50425212	     21.11922470	     98.18972402
      0.34000000	     -0.98109666	     -2.44902603	      6.58652038	      0.38945977	      0.96682695	     -0.13387793	     -3.76489159	      9.50654965	      0.06217310	      1.03006003	      0.01797794	      6.72403163	    -14.90390754	     -6.52202951	     29.80571699	     -5.01338654	     -5.46971388	     42.31050273	      0.73845758	     -0.17828943	    -12.28176218	     -6.52202951	     -4.47552583	     -0.15092423	      7.15667737	     13.01732751	     -3.47580895	    -13.74523055	     42.31670978	    105.62339842	     -3.07288294	     -0.68410934	    -18.32556351	     19.56411616	     97.77124004
      0.35000000	     -1.32381992	     -2.46173970	      6.29577530	      0.40057261	      0.96549870	     -0.13445898	     -4.32180462	      9.48836336	      0.20691969	      0.79062871	      0.01379907	      7.15289627	    -14.49296706	     -6.53373654	     30.20174885	     -4.88108721	     -6.31104410	     38.39809722	      0.67017322	     -0.25839128	    -11.71797908	     -6.53373654	     -4.08500080	     -0.06193934	      7.62485488	     13.26627188	     -3.40384749	    -13.29163381	     43.18562415	    105.62159098	     -4.40518217	     -0.61010192	    -18.87144652	     18.44283488	     97.46424710
      0.36000000	     -1.24225266	     -2.39946473	      5.95445219	      0.41185016	      0.96459500	     -0.13511370	     -5.30887025	      9.38940006	     -0.22994538	      0.67067287	      0.01170545	      8.82359839	    -12.48527290	     -6.62108758	     29.90435488	     -4.75234041	     -7.45051322	     34.10967810	      0.59532619	     -0.64986711	    -11.05409751	     -6.62108758	     -4.22572013	     -0.00367141	      8.34556709	     13.46099074	     -3.60448321	    -12.48142573	     44.07919885	    106.00783712	     -5.42336560	     -0.39292410	    -20.51781921	     17.46950915	     96.61026385
      0.37000000	     -1.64060647	     -2.51653256	      5.69045627	      0.42305372	      0.96265637	     -0.13591455	     -5.74008775	      9.45087537	     -0.03897362	      0.55900475	      0.00975647	      9.20152595	    -12.25475799	     -6.63296744	     30.14351870	     -4.61590473	     -8.25264741	     29.77245670	      0.51962740	     -0.67657732	    -10.07782877	     -6.63296744	     -3.74375168	      0.22211861	      8.83334521	     13.60797143	     -3.62230702	    -12.03561181	     44.93827179	    105.94872073	     -6.78348883	     -0.31459732	    -20.96469243	     16.66026118	     96.34559602
      0.38000000	     -1.86270295	     -2.62882285	      5.44368206	      0.43436773	      0.96077747	     -0.13684065	     -6.36333813	      9.51292181	      0.11131006	      0.48082222	      0.00839193	      9.83867913	    -11.91691278	     -6.64500146	     30.05136484	     -4.47859797	     -9.23685448	     25.22953249	      0.44033841	     -0.76984563	     -8.77790530	     -6.64500146	     -3.46664579	      0.45655478	      9.44400758	     13.66820320	     -3.80271232	    -11.49278730	     45.82078267	    105.95541938	     -7.98832004	     -0.23339222	    -21.49851173	     15.87199919	     96.08866656
